<svg xmlns="http://www.w3.org/2000/svg" viewBox="0 0 120 120"><defs><style>.a{fill:#e5e5e5;}.b{fill:#cdcdcd;}.c{fill:#b8b8b8;}</style></defs><title>Artboard 3 copy</title><path class="a" d="M99.18,96.7l-7.54-2.77A1.1,1.1,0,0,1,91,92.61L94.73,80l-28-72c-.6-1.54-1.9-1.73-2.91-.41L24.36,59.53a4.83,4.83,0,0,1-3.68,4.84l-16.75,22c-1,1.31-.49,2.57,1.15,2.8l95.65,13.45c1.66.23,2.49-.84,1.89-2.38l-1.85-4.76-.26.61A1.06,1.06,0,0,1,99.18,96.7ZM60,72.67h0a4.61,4.61,0,0,1-9.13-1.28h0A4.61,4.61,0,1,1,60,72.67Zm6.74-36.28-6,25.42a1.09,1.09,0,0,1-1.22.81l-4.7-.83A1.1,1.1,0,0,1,54,60.62l2.37-26.17a.89.89,0,0,1,1.08-.81L66,35.23A1,1,0,0,1,66.75,36.39Z"/><path class="b" d="M66,35.23l-8.55-1.59a.89.89,0,0,0-1.08.81L54,60.62a1.1,1.1,0,0,0,.89,1.17l4.7.83a1.09,1.09,0,0,0,1.22-.81l6-25.42A1,1,0,0,0,66,35.23Z"/><path class="b" d="M56.09,67.46a4.63,4.63,0,0,0-5.21,3.93h0A4.61,4.61,0,0,0,60,72.68h0A4.61,4.61,0,0,0,56.09,67.46Z"/><path class="b" d="M114.67,60.4,103,55.61a.89.89,0,0,0-1.22.59L94.73,80l6,15.53L115.21,61.7A1,1,0,0,0,114.67,60.4Z"/><path class="c" d="M91,92.61a1.1,1.1,0,0,0,.65,1.32l7.54,2.77a1.06,1.06,0,0,0,1.33-.57l.26-.61L94.73,80Z"/><path class="b" d="M92.11,102.3a5.71,5.71,0,0,0-7.31,3.41h0a5.7,5.7,0,1,0,10.71,3.9h0A5.7,5.7,0,0,0,92.11,102.3Z"/><path class="a" d="M12.46,49.47a1.09,1.09,0,0,0,1.27.73l7.46-1.73A1.08,1.08,0,0,0,22,47.26L17.6,18.07a.91.91,0,0,0-1.12-.76L4.3,20.12a.9.9,0,0,0-.67,1.17Z"/><path class="a" d="M24.24,58.6h0a4.83,4.83,0,1,0-9.41,2.17h0a4.83,4.83,0,0,0,5.79,3.62l.06,0,3.68-4.84A4.94,4.94,0,0,0,24.24,58.6Z"/><path class="b" d="M24.36,59.53l-3.68,4.84A4.83,4.83,0,0,0,24.36,59.53Z"/></svg>